PathFileType	4	(X/Y/Z)	RBDS027\RBDS027runT45.trc
DataRate	CameraRate	NumFrames	NumMarkers	Units	OrigDataRate	OrigDataStartFrame	OrigNumFrames
150.000000	150.000000	5	33	mm	150.000000	3375	4500
Frame#	Time	L.ASIS			L.Heel.Bottom			L.Heel.Lateral			L.Heel.Top			L.Iliac.Crest			L.MT1			L.MT5			L.PSIS			L.Shank.Bottom.Lateral			L.Shank.Bottom.Medial			L.Shank.Top.Lateral			L.Shank.Top.Medial			L.Thigh.Bottom.Lateral			L.Thigh.Bottom.Medial			L.Thigh.Top.Lateral			L.Thigh.Top.Medial			R.ASIS			R.ASY			R.Heel.Bottom			R.Heel.Lateral			R.Heel.Top			R.Iliac.Crest			R.MT1			R.MT5			R.PSIS			R.Shank.Bottom.Lateral			R.Shank.Bottom.Medial			R.Shank.Top.Lateral			R.Shank.Top.Medial			R.Thigh.Bottom.Lateral			R.Thigh.Bottom.Medial			R.Thigh.Top.Lateral			R.Thigh.Top.Medial			
		X1	Y1	Z1	X2	Y2	Z2	X3	Y3	Z3	X4	Y4	Z4	X5	Y5	Z5	X6	Y6	Z6	X7	Y7	Z7	X8	Y8	Z8	X9	Y9	Z9	X10	Y10	Z10	X11	Y11	Z11	X12	Y12	Z12	X13	Y13	Z13	X14	Y14	Z14	X15	Y15	Z15	X16	Y16	Z16	X17	Y17	Z17	X18	Y18	Z18	X19	Y19	Z19	X20	Y20	Z20	X21	Y21	Z21	X22	Y22	Z22	X23	Y23	Z23	X24	Y24	Z24	X25	Y25	Z25	X26	Y26	Z26	X27	Y27	Z27	X28	Y28	Z28	X29	Y29	Z29	X30	Y30	Z30	X31	Y31	Z31	X32	Y32	Z32	X33	Y33	Z33	

3376	22.5	2109.294352810332	867.5635639084843	866.1519277767427	1442.638966009861	274.9527100299497	984.7009846075641	1459.01851501426	258.0883855085559	931.5657821559315	1489.912639048769	285.0032793504269	970.4476383199514	2098.974033178008	957.2685201891948	846.4085212588811	1554.78364457009	82.87700021953965	977.3105007773288	1502.001441499907	117.6136897574571	883.9569678633063	1960.708089399663	935.1866403418042	950.7881675158197	1550.788493280387	302.4023213630028	898.145520215076	1535.838050750514	316.9418322295041	950.1482222671896	1582.918921408564	376.0774201576502	888.7588192354638	1572.553945148929	388.7726157454543	940.1295587473334	1818.267008733065	617.2830369350282	851.2075045439558	1788.192289598872	646.819077022628	908.82268324243	1872.712107723719	712.2848186876823	835.952198755855	1848.723759799969	738.1191857133936	894.2241043272006	2122.459222210452	899.5005315959653	1118.551573036217	2253.138148913472	144.604296535988	1075.246690238762	2065.575125799752	142.0386940481093	1052.590303412518	2096.410169651613	146.4560192103353	1098.001279198051	2087.062518601261	181.7768296663108	1057.394794729542	2070.977410911172	990.3599948399636	1144.76937384206	2275.692412971764	89.93783274669197	1019.990497863253	2235.204694765863	89.81898582868992	1130.989072801917	1963.838348265735	934.7452739518135	1050.198646814054	2156.532093250942	247.3706844735384	1112.181577207896	2132.208757538507	264.8925911109033	1070.767103980551	2173.399232292336	328.0774842646258	1133.696230610304	2146.773307490462	342.2458624811461	1090.01924714234	2253.698086398358	611.3316333814238	1167.421928885546	2206.684423361322	565.2369366633401	1134.958021375378	2168.023387297883	678.5106251329158	1186.219079505278	2124.274245241684	635.6750256268984	1152.751562363757	
3377	22.50666666666667	2111.521781885856	868.9514558922241	866.8850664907907	1432.232478030739	295.0007494580569	985.4813716909013	1447.225607969683	277.3509376640997	931.9861729796397	1479.982425736192	302.7641862344245	970.7348674746178	2102.804848881243	958.6908908231831	846.8563166906295	1535.484235357869	96.90876132592611	975.719595751998	1483.359721473577	134.2578325215261	883.3018426432184	1963.098657419431	938.8203465888787	949.5259458993644	1540.044986381113	317.4145812676041	897.9017549843463	1525.927819486971	331.8736859552163	950.2552682990654	1574.453451132583	390.0613935235261	889.025295227671	1564.669027638078	402.6357348943876	940.6226973610823	1815.243172411076	625.0008968070349	852.312685981138	1786.465213182636	654.3385088133659	910.6084224958088	1871.64383417648	719.0327244543784	837.8606237224263	1849.068536677467	744.4840705978261	896.828341334728	2123.636075628711	902.0298286050976	1118.841351503931	2285.612913935887	142.6578039818671	1075.998382815913	2099.781621934736	120.6334204389631	1052.775288319596	2129.693678394747	128.4559980594015	1098.360075147213	2116.940482777165	162.3275424078291	1057.49347305371	2070.721318591078	993.2198633729201	1144.422269514114	2313.895412900007	90.56943235160155	1021.174059067301	2273.248836170048	86.74568021809881	1132.104895331165	1965.678179987603	938.6217146201685	1049.1024141989	2179.65468994495	235.3006511578473	1112.376362600735	2154.095364597229	250.589326165119	1070.808454254814	2189.298798514665	317.0341503970117	1134.060527748829	2161.890855728758	328.7570241961916	1090.196973565915	2252.724668976598	610.9759322140924	1166.18920891324	2204.334122921595	565.3212353029846	1135.278713042813	2168.357833636225	679.664591030078	1185.652559865659	2123.445901307754	637.1998562169679	1153.312763225039	
3378	22.51333333333334	2113.302682844993	870.5054680791627	867.4977167137124	1421.524195317539	315.4995592984548	985.5837019240521	1435.64381656717	297.2205405566731	931.9348661406991	1469.644844370048	321.0946574733159	970.8588724454942	2105.727698260201	960.0797497384955	847.2297810422281	1516.0243116205	112.4976114940547	974.7254454455472	1465.597443084416	152.2688110114902	882.6911707017803	1965.051800426968	942.2418241324624	948.6592677545389	1529.823198305516	332.6842388718096	897.7875542952827	1516.355298444273	347.5191829380678	950.2375625715794	1567.08166088927	403.8297682546366	889.1428282317055	1557.714721842667	416.7198088652848	940.7721548005114	1813.5715155138	631.0609252126064	853.2106775388684	1785.781866927032	659.9012708584839	912.1478598336531	1871.204725332503	724.4756411522976	839.6487780260021	1849.665380464153	749.3335410311322	899.2333981024107	2124.664151384437	903.9562971199125	1119.138914760495	2316.447322710161	142.6529269257048	1076.831984132895	2134.297806809572	101.6490963112828	1053.093311908056	2162.958891138857	112.8050292773958	1098.837830542796	2147.00473726317	144.8328819302918	1057.713120752082	2070.268929447934	995.2365765845344	1144.302793545179	2350.098869545388	93.6273725135233	1022.483521360397	2309.625924818475	86.3373957385493	1133.42942407434	1967.295701965184	941.9957922434046	1048.292269341824	2202.387539202168	224.4731301295175	1112.772009121848	2175.707940002931	237.5178314057945	1071.138050380528	2204.936191471086	306.5520700210678	1134.718636945594	2176.824705793522	315.8757311480368	1090.772164458292	2250.554489081342	608.9557202892117	1165.128912086804	2200.928101846418	564.1112626106628	1135.208708353333	2167.796771086114	679.3681551346244	1185.062842465646	2121.726099237052	637.6146155510233	1153.498666960277	
3379	22.52	2114.647327654753	872.2278846243289	867.9284554541166	1410.856887485165	336.6255264451099	984.9545670362729	1424.554502592583	317.7172980090328	931.3729378385107	1459.26490695251	340.0635857989491	970.7235653555779	2107.71754634202	961.5506735941591	847.5372714644077	1496.397654683047	129.5694732371331	974.4422719173491	1448.693511743419	171.4526015135096	882.2196957813603	1966.552288760417	945.3890666907582	948.2260267625124	1520.26972951929	348.152051094376	897.7383652371884	1507.307897455694	363.7907422594021	950.0584451971423	1560.868480859416	417.3060752268812	889.0917428653215	1551.794607166906	430.9268355604129	940.5691516107695	1813.234807367149	635.3143782584383	853.8294542865102	1786.109346578474	663.4765505719064	913.3317476146846	1871.438787042375	728.4595539641425	841.1449123357845	1850.538199229568	752.6282908266495	901.2344995742252	2125.560567632599	905.3497944539557	1119.367559487506	2345.210832790208	144.4357739148481	1077.67758506392	2168.473359726671	85.23692743820409	1053.593737682463	2195.632647042706	99.572479589764	1099.460611150371	2176.692111853417	129.4501406442427	1058.118450043384	2069.657120698063	996.4449503317708	1144.406237224995	2383.771480057669	98.91819297619155	1023.781548241438	2343.845578278409	88.36240131521819	1134.851450293703	1968.679657106542	944.8133597627067	1047.810166948167	2224.360652668008	214.9970295560794	1113.386802658676	2196.649872278337	225.8168852776683	1071.783819800874	2220.060874521719	296.803551934964	1135.683691422596	2191.28632672588	303.7983399973608	1091.765500216105	2247.242292739159	605.4264122070612	1164.347456631908	2196.543073679924	561.7590546217758	1134.792479094402	2166.373123929311	677.7358879741058	1184.556292531333	2119.179250888848	637.0314715618376	1153.3672919882	
3380	22.52666666666667	2115.583173279915	874.0851250109649	868.1261694413367	1400.734713442364	358.5160235069768	983.5912616597138	1414.330822743733	338.8326345044159	930.3007269239838	1449.344849396724	359.6971160308808	970.2418553818416	2108.772068859892	963.1828736045303	847.7867170976933	1476.7307791387	148.0629357776653	974.9364323352829	1432.657386572429	191.6250768355623	881.9881190148282	1967.606025499952	948.18459935652	948.2406915211121	1511.589039014139	363.7428471819036	897.6782054548457	1499.046405710434	380.5666182995523	949.6714490038904	1555.905501794196	430.4125143614544	888.8486509197177	1547.052665418988	445.1398745014392	940.0036858845123	1814.192794642764	637.6729930796756	854.1157191273625	1787.40688410499	665.0933321916817	914.0694013084068	1872.376071702059	730.869923386799	842.1931976893092	1851.72001989399	754.3623485997965	902.6466521791302	2126.344467841283	906.280586586533	1119.459892862616	2371.509163366769	147.7540526591376	1078.480433187153	2201.608701542088	71.43015840315165	1054.300396613954	2227.104615696766	88.71531383738218	1100.23771832379	2205.394965229721	116.2390817457584	1058.751873185418	2068.945086825928	996.9138766401694	1144.705275250188	2414.431131867398	106.1237116139698	1024.955049125763	2375.456904657464	92.45635041827629	1136.264560818408	1969.830961038943	947.0293830486747	1047.675879697568	2245.182896289199	206.9170073155718	1114.221411848548	2216.514322212904	215.5625469551604	1072.744310593012	2234.396587624213	287.9240299800128	1136.942085413595	2204.979754923876	292.682557167731	1093.155909700518	2242.912021240949	600.6159220607871	1163.926977263278	2191.316343517941	558.465918478078	1134.103013746108	2164.169326825027	674.9485850176509	1184.223869124982	2115.919094457016	635.6024733074134	1152.995048054345	
